{"scene":0,"asset":{"generator":"ImageToStl.com","version":"2.0"},"scenes":[{"name":"Scene","nodes":[0]}],"nodes":[{"name":"Node0","children":[1,2,3,4,5]},{"name":"Node1","mesh":0},{"name":"Node2","mesh":1},{"name":"Node3","mesh":2},{"name":"Node4","mesh":3},{"name":"Node5","mesh":4}],"materials":[{"name":"Table","pbrMetallicRoughness":{"baseColorFactor":[0.8,0.8,0.8,1.0],"metallicFactor":0.5,"roughnessFactor":0.75},"emissiveFactor":[0.0,0.0,0.0],"doubleSided":true},{"name":"Legs","pbrMetallicRoughness":{"baseColorFactor":[0.8,0.8,0.8,1.0],"metallicFactor":0.5,"roughnessFactor":0.75},"emissiveFactor":[0.0,0.0,0.0],"doubleSided":true}],"meshes":[{"name":"Mesh0","primitives":[{"indices":3,"material":0,"attributes":{"POSITION":0,"NORMAL":1,"TEXCOORD_0":2}}]},{"name":"Mesh0","primitives":[{"indices":7,"material":1,"attributes":{"POSITION":4,"NORMAL":5,"TEXCOORD_0":6}}]},{"name":"Mesh0","primitives":[{"indices":11,"material":1,"attributes":{"POSITION":8,"NORMAL":9,"TEXCOORD_0":10}}]},{"name":"Mesh0","primitives":[{"indices":15,"material":1,"attributes":{"POSITION":12,"NORMAL":13,"TEXCOORD_0":14}}]},{"name":"Mesh0","primitives":[{"indices":19,"material":1,"attributes":{"POSITION":16,"NORMAL":17,"TEXCOORD_0":18}}]}],"accessors":[{"bufferView":0,"componentType":5126,"count":22,"type":"VEC3","min":[-1.0,-1.0,1.3627286],"max":[1.0,1.0,1.4627287]},{"bufferView":1,"componentType":5126,"count":22,"type":"VEC3"},{"bufferView":2,"componentType":5126,"count":22,"type":"VEC2"},{"bufferView":3,"componentType":5123,"count":108,"type":"SCALAR"},{"bufferView":4,"componentType":5126,"count":24,"type":"VEC3","min":[0.78008664,0.79439074,-0.035642385],"max":[0.88008666,0.89439076,1.3643577]},{"bufferView":5,"componentType":5126,"count":24,"type":"VEC3"},{"bufferView":6,"componentType":5126,"count":24,"type":"VEC2"},{"bufferView":7,"componentType":5123,"count":108,"type":"SCALAR"},{"bufferView":8,"componentType":5126,"count":24,"type":"VEC3","min":[0.78008664,-0.92566544,-0.035642385],"max":[0.88008666,-0.8256654,1.3643577]},{"bufferView":9,"componentType":5126,"count":24,"type":"VEC3"},{"bufferView":10,"componentType":5126,"count":24,"type":"VEC2"},{"bufferView":11,"componentType":5123,"count":108,"type":"SCALAR"},{"bufferView":12,"componentType":5126,"count":24,"type":"VEC3","min":[-0.9299692,-0.92566544,-0.035642385],"max":[-0.82996917,-0.8256654,1.3643577]},{"bufferView":13,"componentType":5126,"count":24,"type":"VEC3"},{"bufferView":14,"componentType":5126,"count":24,"type":"VEC2"},{"bufferView":15,"componentType":5123,"count":108,"type":"SCALAR"},{"bufferView":16,"componentType":5126,"count":24,"type":"VEC3","min":[-0.9299692,0.79439074,-0.035642385],"max":[-0.82996917,0.89439076,1.3643577]},{"bufferView":17,"componentType":5126,"count":24,"type":"VEC3"},{"bufferView":18,"componentType":5126,"count":24,"type":"VEC2"},{"bufferView":19,"componentType":5123,"count":108,"type":"SCALAR"}],"bufferViews":[{"target":34962,"buffer":0,"byteLength":264,"byteOffset":0},{"target":34962,"buffer":0,"byteLength":264,"byteOffset":264},{"target":34962,"buffer":0,"byteLength":176,"byteOffset":528},{"target":34963,"buffer":0,"byteLength":216,"byteOffset":704},{"target":34962,"buffer":0,"byteLength":288,"byteOffset":920},{"target":34962,"buffer":0,"byteLength":288,"byteOffset":1208},{"target":34962,"buffer":0,"byteLength":192,"byteOffset":1496},{"target":34963,"buffer":0,"byteLength":216,"byteOffset":1688},{"target":34962,"buffer":0,"byteLength":288,"byteOffset":1904},{"target":34962,"buffer":0,"byteLength":288,"byteOffset":2192},{"target":34962,"buffer":0,"byteLength":192,"byteOffset":2480},{"target":34963,"buffer":0,"byteLength":216,"byteOffset":2672},{"target":34962,"buffer":0,"byteLength":288,"byteOffset":2888},{"target":34962,"buffer":0,"byteLength":288,"byteOffset":3176},{"target":34962,"buffer":0,"byteLength":192,"byteOffset":3464},{"target":34963,"buffer":0,"byteLength":216,"byteOffset":3656},{"target":34962,"buffer":0,"byteLength":288,"byteOffset":3872},{"target":34962,"buffer":0,"byteLength":288,"byteOffset":4160},{"target":34962,"buffer":0,"byteLength":192,"byteOffset":4448},{"target":34963,"buffer":0,"byteLength":216,"byteOffset":4640}],"buffers":[{"byteLength":4856,"uri":"data:application/octet-stream;base64,"}]}