{"scene":0,"asset":{"generator":"ImageToStl.com","version":"2.0"},"scenes":[{"name":"Scene","nodes":[0]}],"nodes":[{"name":"Node0","children":[1,2,3,4,5]},{"name":"Node1","mesh":0},{"name":"Node2","mesh":1},{"name":"Node3","mesh":2},{"name":"Node4","mesh":3},{"name":"Node5","mesh":4}],"materials":[{"name":"Table","pbrMetallicRoughness":{"baseColorFactor":[0.8,0.8,0.8,1.0],"metallicFactor":0.5,"roughnessFactor":0.75},"emissiveFactor":[0.0,0.0,0.0],"doubleSided":true},{"name":"Legs","pbrMetallicRoughness":{"baseColorFactor":[0.8,0.8,0.8,1.0],"metallicFactor":0.5,"roughnessFactor":0.75},"emissiveFactor":[0.0,0.0,0.0],"doubleSided":true}],"meshes":[{"name":"Mesh0","primitives":[{"indices":3,"material":0,"attributes":{"POSITION":0,"NORMAL":1,"TEXCOORD_0":2}}]},{"name":"Mesh0","primitives":[{"indices":7,"material":1,"attributes":{"POSITION":4,"NORMAL":5,"TEXCOORD_0":6}}]},{"name":"Mesh0","primitives":[{"indices":11,"material":1,"attributes":{"POSITION":8,"NORMAL":9,"TEXCOORD_0":10}}]},{"name":"Mesh0","primitives":[{"indices":15,"material":1,"attributes":{"POSITION":12,"NORMAL":13,"TEXCOORD_0":14}}]},{"name":"Mesh0","primitives":[{"indices":19,"material":1,"attributes":{"POSITION":16,"NORMAL":17,"TEXCOORD_0":18}}]}],"accessors":[{"bufferView":0,"componentType":5126,"count":22,"type":"VEC3","min":[-1.0,-1.0,1.3627286],"max":[1.0,1.0,1.4627287]},{"bufferView":1,"componentType":5126,"count":22,"type":"VEC3"},{"bufferView":2,"componentType":5126,"count":22,"type":"VEC2"},{"bufferView":3,"componentType":5123,"count":108,"type":"SCALAR"},{"bufferView":4,"componentType":5126,"count":130,"type":"VEC3","min":[-0.88910073,0.7830744,-0.033435762],"max":[-0.7891007,0.8830744,1.3665643]},{"bufferView":5,"componentType":5126,"count":130,"type":"VEC3"},{"bufferView":6,"componentType":5126,"count":130,"type":"VEC2"},{"bufferView":7,"componentType":5123,"count":1116,"type":"SCALAR"},{"bufferView":8,"componentType":5126,"count":130,"type":"VEC3","min":[0.77762014,0.7830744,-0.033435762],"max":[0.87762016,0.8830744,1.3665643]},{"bufferView":9,"componentType":5126,"count":130,"type":"VEC3"},{"bufferView":10,"componentType":5126,"count":130,"type":"VEC2"},{"bufferView":11,"componentType":5123,"count":1116,"type":"SCALAR"},{"bufferView":12,"componentType":5126,"count":130,"type":"VEC3","min":[0.77762014,-0.90309143,-0.033435762],"max":[0.87762016,-0.8030914,1.3665643]},{"bufferView":13,"componentType":5126,"count":130,"type":"VEC3"},{"bufferView":14,"componentType":5126,"count":130,"type":"VEC2"},{"bufferView":15,"componentType":5123,"count":1116,"type":"SCALAR"},{"bufferView":16,"componentType":5126,"count":130,"type":"VEC3","min":[-0.88910073,-0.90309143,-0.033435762],"max":[-0.7891007,-0.8030914,1.3665643]},{"bufferView":17,"componentType":5126,"count":130,"type":"VEC3"},{"bufferView":18,"componentType":5126,"count":130,"type":"VEC2"},{"bufferView":19,"componentType":5123,"count":1116,"type":"SCALAR"}],"bufferViews":[{"target":34962,"buffer":0,"byteLength":264,"byteOffset":0},{"target":34962,"buffer":0,"byteLength":264,"byteOffset":264},{"target":34962,"buffer":0,"byteLength":176,"byteOffset":528},{"target":34963,"buffer":0,"byteLength":216,"byteOffset":704},{"target":34962,"buffer":0,"byteLength":1560,"byteOffset":920},{"target":34962,"buffer":0,"byteLength":1560,"byteOffset":2480},{"target":34962,"buffer":0,"byteLength":1040,"byteOffset":4040},{"target":34963,"buffer":0,"byteLength":2232,"byteOffset":5080},{"target":34962,"buffer":0,"byteLength":1560,"byteOffset":7312},{"target":34962,"buffer":0,"byteLength":1560,"byteOffset":8872},{"target":34962,"buffer":0,"byteLength":1040,"byteOffset":10432},{"target":34963,"buffer":0,"byteLength":2232,"byteOffset":11472},{"target":34962,"buffer":0,"byteLength":1560,"byteOffset":13704},{"target":34962,"buffer":0,"byteLength":1560,"byteOffset":15264},{"target":34962,"buffer":0,"byteLength":1040,"byteOffset":16824},{"target":34963,"buffer":0,"byteLength":2232,"byteOffset":17864},{"target":34962,"buffer":0,"byteLength":1560,"byteOffset":20096},{"target":34962,"buffer":0,"byteLength":1560,"byteOffset":21656},{"target":34962,"buffer":0,"byteLength":1040,"byteOffset":23216},{"target":34963,"buffer":0,"byteLength":2232,"byteOffset":24256}],"buffers":[{"byteLength":26488,"uri":"data:application/octet-stream;base64,"}]}